# xmcd CD database file
#
# Track frame offsets:
#	150
#	26018
#	52904
#	70323
#	95461
#	124233
#	148975
#	168141
#	183523
#	207143
#	235928
#	264336
#	281266
#	304997
#
# Disc length: 4540 seconds
#
# Revision: 0
# Processed by: cddbd v1.5.2PL0 Copyright (c) Steve Scherf et al.
# Submitted via: CDex 1.70beta2
#
DISCID=c711ba0e
DTITLE=Elixir - First Seed Ripening
DYEAR=2011
DGENRE=Jazz
TTITLE0=First Seed Ripening
TTITLE1=My Skin is a Glove
TTITLE2=Stuff of Myths
TTITLE3=Pierrot
TTITLE4=Traditional Song
TTITLE5=Last Flowers to the Hospital
TTITLE6=A Circle of Moonlight
TTITLE7=My Old Man
TTITLE8=Sleep Soundly, Peacefully
TTITLE9=Hemispheres
TTITLE10=Nocturne
TTITLE11=Last Night's Comfort
TTITLE12=Snapshot
TTITLE13=I Hope I Never
EXTD=YEAR: 2011
EXTT0=
EXTT1=
EXTT2=
EXTT3=
EXTT4=
EXTT5=
EXTT6=
EXTT7=
EXTT8=
EXTT9=
EXTT10=
EXTT11=
EXTT12=
EXTT13=
PLAYORDER=
